/* XPM */
static char *icon_48_xpm[] = {
/* width height ncolors chars_per_pixel */
"48 48 931 2",
/* colors */
"   c #262322",
" . c #000000",
" X c #353534",
" o c #363335",
" O c #81734D",
" + c #343333",
" @ c #554439",
" # c #575852",
" $ c #333132",
" % c #75533E",
" & c #A6A525",
" * c #7D6F49",
" = c #302F2F",
" - c #7C6D48",
" ; c #5E5645",
" : c #403F42",
" > c #302D2F",
" , c #626860",
" < c #7B6D47",
" 1 c #626660",
" 2 c #2D2F2C",
" 3 c #43403B",
" 4 c #818A85",
" 5 c #2F2B2E",
" 6 c #756A4B",
" 7 c #61645F",
" 8 c #BBBC4A",
" 9 c #715D51",
" 0 c #4A4B4F",
" q c #2A2729",
" w c #38393A",
" e c #38373A",
" r c #3D3835",
" t c #282527",
" y c #8B8171",
" u c #94694F",
" i c #F0F13F",
" p c #ADAC25",
" a c #585C56",
" s c #715647",
" d c #343336",
" f c #28241D",
" g c #69778B",
" h c #393231",
" j c #999F6E",
" k c #37342F",
" l c #656C66",
" z c #37322F",
" x c #36322E",
" c c #303132",
" v c #76879B",
" b c #302F32",
" n c #302D32",
" m c #43423E",
" M c #868D83",
" N c #342E2C",
" B c #553F32",
" V c #332E2B",
" C c #322E2A",
" Z c #4E3E35",
" A c #322C2A",
" S c #4D3E34",
" D c #786B47",
" F c #7E614D",
" G c #2C2B2E",
" H c #312C29",
" J c #322A2A",
" K c #F5F51C",
" L c #634D43",
" P c #403C3B",
" I c #2B292D",
" U c #FBFB0E",
" Y c #766945",
" T c #2F2A27",
" R c #453B36",
" E c #3E3A39",
" W c #29272B",
" Q c #55523F",
" ! c #3D3A38",
" ~ c #909790",
" ^ c #3C3A37",
" / c #79782A",
" ( c #4B4C49",
" ) c #3C3837",
" _ c #7E837B",
" ` c #2A2622",
" ' c #393634",
" ] c #35333A",
" [ c #292421",
" { c #323737",
" } c #393434",
" | c #383433",
".  c #43342A",
".. c #373432",
".X c #6A6D64",
".o c #5A5751",
".O c #353230",
".+ c #675C40",
".@ c #49453D",
".# c #353030",
".$ c #4B413F",
".% c #676961",
".& c #33302E",
".* c #332E2E",
".= c #687483",
".- c #322E2D",
".; c #47505C",
".: c #312E2C",
".> c #E0E146",
"., c #2F2C2A",
".< c #4A472A",
".1 c #664E3F",
".2 c #919B94",
".3 c #2A292F",
".4 c #897C54",
".5 c #29272E",
".6 c #363D3E",
".7 c #644C3D",
".8 c #2C2A27",
".9 c #413B35",
".0 c #473A31",
".q c #C7D7EA",
".w c #684B37",
".e c #4F4D46",
".r c #26252B",
".t c #636F74",
".y c #292624",
".u c #848F9B",
".i c #44382E",
".p c #6D6F6A",
".a c #44342E",
".s c #383436",
".d c #33313B",
".f c #272222",
".g c #41454C",
".h c #696D66",
".j c #353433",
".k c #353233",
".l c #80724B",
".z c #343232",
".x c #7A889B",
".c c #333231",
".v c #343032",
".b c #A7A625",
".n c #7F704A",
".m c #333031",
".M c #37312B",
".N c #565550",
".B c #605746",
".V c #312E2F",
".C c #302E2E",
".Z c #595449",
".A c #302C2E",
".S c #2F2C2D",
".D c #453D3C",
".F c #2E2C2C",
".G c #52514C",
".H c #2D2C2B",
".J c #423D39",
".K c #493A36",
".L c #413D38",
".P c #ED9553",
".I c #634C3F",
".U c #403D37",
".Y c #5E523A",
".T c #403B37",
".R c #545D65",
".E c #3F3936",
".W c #6F6344",
".Q c #272425",
".! c #3B3732",
".~ c #81764F",
".^ c #41454F",
"./ c #41342E",
".( c #EEEE11",
".) c #3A3531",
"._ c #494743",
".` c #444448",
".' c #7F724D",
".] c #5A4436",
".[ c #434447",
".{ c #464540",
".} c #656965",
".| c #5A564D",
"X  c #888E84",
"X. c #4F5256",
"XX c #545351",
"Xo c #342F2B",
"XO c #52554F",
"X+ c #6A4F3F",
"X@ c #322D29",
"X# c #4B5252",
"X$ c #786A46",
"X% c #2C2A2D",
"X& c #312B28",
"X* c #4C3D32",
"X= c #302B27",
"X- c #2F2B26",
"X; c #6D7570",
"X: c #2B282C",
"X> c #734B34",
"X, c #2A282B",
"X< c #443C34",
"X1 c #2D2924",
"X2 c #413C31",
"X3 c #282629",
"X4 c #4C5A6A",
"X5 c #5A5F5A",
"X6 c #3C3736",
"X7 c #787728",
"X8 c #404951",
"X9 c #818148",
"X0 c #45464C",
"Xq c #292520",
"Xw c #909DB0",
"Xe c #5B463A",
"Xr c #6D7D87",
"Xt c #393533",
"Xy c #28231F",
"Xu c #383332",
"Xi c #6E5546",
"Xp c #51453A",
"Xa c #6A7784",
"Xs c #3F4246",
"Xd c #34312E",
"Xf c #302E34",
"Xg c #2F2E33",
"Xh c #515751",
"Xj c #605A42",
"Xk c #2E2E32",
"Xl c #332F2D",
"Xz c #4B4534",
"Xx c #322F2C",
"Xc c #2E2C32",
"Xv c #332D2D",
"Xb c #322D2C",
"Xn c #312D2B",
"Xm c #74674F",
"XM c #312B2B",
"XN c #664F3E",
"XB c #2F2B29",
"XV c #30292A",
"XC c #383E3F",
"XZ c #8A7D54",
"XA c #2E2B28",
"XS c #2F2929",
"XD c #383C3F",
"XF c #3E3B3B",
"XG c #29282D",
"XH c #FDFD08",
"XJ c #2C2926",
"XK c #3D393A",
"XL c #483931",
"XP c #2C2726",
"XI c #3B3938",
"XU c #2B2725",
"XY c #867950",
"XT c #FCFD32",
"XR c #3A3737",
"XE c #3F3632",
"XW c #383735",
"XQ c #393536",
"X! c #33343A",
"X~ c #83754D",
"X^ c #373534",
"X/ c #32435A",
"X( c #363533",
"X) c #323239",
"X_ c #5D6577",
"X` c #81734B",
"X' c #464346",
"X] c #353132",
"X[ c #747E73",
"X{ c #7E6F48",
"X} c #45423B",
"X| c #302D2D",
"o  c #513E33",
"o. c #62573D",
"oX c #6D4E3E",
"oo c #5D6563",
"oO c #2F2B2C",
"o+ c #374041",
"o@ c #2E2B2B",
"o# c #423E38",
"o$ c #2D2B2A",
"o% c #3E3B3E",
"o& c #463F32",
"o* c #413C37",
"o= c #2C2929",
"o- c #8191A4",
"o; c #2B2928",
"o: c #FBFB09",
"o> c #726646",
"o, c #403A36",
"o< c #463932",
"o1 c #2A2727",
"o2 c #292726",
"o3 c #433B2F",
"o4 c #34363E",
"o5 c #513529",
"o6 c #282525",
"o7 c #373537",
"o8 c #3B3631",
"o9 c #262323",
"o0 c #797E7B",
"oq c #39362F",
"ow c #BFC68E",
"oe c #494642",
"or c #777E79",
"ot c #8B9186",
"oy c #8C664F",
"ou c #333133",
"oi c #323132",
"op c #313131",
"oa c #6F5243",
"os c #322F32",
"od c #312F31",
"of c #7B6D48",
"og c #484137",
"oh c #342C2A",
"oj c #433E3C",
"ok c #2E2B2E",
"ol c #796B46",
"oz c #7E5F4B",
"ox c #2C292C",
"oc c #FBFB0C",
"ov c #463B35",
"ob c #4A4B50",
"on c #674A3B",
"om c #2A272A",
"oM c #3D3C36",
"oN c #897A4F",
"oB c #282528",
"oV c #C77F4A",
"oC c #C3C760",
"oZ c #3A3833",
"oA c #343737",
"oS c #3A3633",
"oD c #252325",
"oF c #2A2420",
"oG c #715848",
"oH c #29241F",
"oJ c #EDED12",
"oK c #474643",
"oL c #323135",
"oP c #373230",
"oI c #36322F",
"oU c #2F3132",
"oY c #35302E",
"oT c #3A404A",
"oR c #6C5243",
"oE c #2F2F32",
"oW c #34302D",
"oQ c #352E2E",
"o! c #33302C",
"o~ c #2F2D32",
"o^ c #342E2D",
"o/ c #322E2B",
"o( c #4E3E36",
"o) c #2D2B30",
"o_ c #322C2B",
"o` c #372D26",
"o' c #6E4F3B",
"o] c #312C2A",
"o[ c #3F403B",
"o{ c #453F37",
"o} c #2C292F",
"o| c #5B5F67",
"O  c #4A3C32",
"O. c #595F65",
"OX c #8A7C53",
"Oo c #2E2A27",
"OO c #897C52",
"O+ c #D3D320",
"O@ c #28272B",
"O# c #363B3C",
"O$ c #887A51",
"O% c #3C3A38",
"O& c #2B2624",
"O* c #494C48",
"O= c #86784F",
"O- c #2A2623",
"O; c #85784E",
"O: c #3A3636",
"O> c #F0F143",
"O, c #6D6F68",
"O< c #393635",
"O1 c #5A473B",
"O2 c #84764D",
"O3 c #5B453C",
"O4 c #383634",
"O5 c #282421",
"O6 c #6A6044",
"O7 c #383434",
"O8 c #333139",
"O9 c #272220",
"O0 c #404749",
"Oq c #454844",
"Ow c #363432",
"Oe c #5F6B6E",
"Or c #363232",
"Ot c #404349",
"Oy c #454444",
"Ou c #353231",
"Oi c #535855",
"Op c #81704A",
"Oa c #343230",
"Os c #85644E",
"Od c #A7AE79",
"Of c #312E2D",
"Og c #302E2C",
"Oh c #C5CA72",
"Oj c #D4D659",
"Ok c #302C2C",
"Ol c #83604C",
"Oz c #4A492B",
"Ox c #2F2C2B",
"Oc c #2E2C2A",
"Ov c #2F2A2B",
"Ob c #49472A",
"On c #2E2A2A",
"Om c #2D2A29",
"OM c #483A33",
"ON c #413B36",
"OB c #473A32",
"OV c #464B52",
"OC c #656056",
"OZ c #2B2827",
"OA c #5D6158",
"OS c #5E5F59",
"OD c #5C4940",
"OF c #34393D",
"OG c #584F3C",
"OH c #3F4855",
"OJ c #635E54",
"OK c #B4B41F",
"OL c #292625",
"OP c #5A493E",
"OI c #595A5E",
"OU c #282624",
"OY c #44362F",
"OT c #3E4654",
"OR c #282424",
"OE c #535762",
"OW c #33333C",
"OQ c #383437",
"O! c #262422",
"O~ c #373436",
"O^ c #363435",
"O/ c #454647",
"O( c #353234",
"O) c #3A332F",
"O_ c #50443E",
"O` c #80724C",
"O' c #524936",
"O] c #343233",
"O[ c #565751",
"O{ c #7E704A",
"O} c #313030",
"O| c #7D6E49",
"+  c #312E30",
"+. c #3C3D48",
"+X c #504134",
"+o c #716C51",
"+O c #606268",
"++ c #2F2E2E",
"+@ c #69757E",
"+# c #302C2F",
"+$ c #2F2C2E",
"+% c #423F3A",
"+& c #2E2A2D",
"+* c #404138",
"+= c #2C2A2B",
"+- c #634C40",
"+; c #3C3A3E",
"+: c #2A2829",
"+> c #D4D41D",
"+, c #292828",
"+< c #2A2629",
"+1 c #82735B",
"+2 c #3E3936",
"+3 c #38363A",
"+4 c #E2E459",
"+5 c #41342F",
"+6 c #EEEE12",
"+7 c #6A6B6B",
"+8 c #6C6142",
"+9 c #3A3532",
"+0 c #3F454E",
"+q c #5B4638",
"+w c #3A3332",
"+e c #575B55",
"+r c #AD7A57",
"+t c #333435",
"+y c #ABAB23",
"+u c #3F322D",
"+i c #747882",
"+p c #757F79",
"+a c #7B7E75",
"+s c #37332F",
"+d c #6B7983",
"+f c #35312D",
"+g c #2F2E31",
"+h c #342F2C",
"+j c #3C4441",
"+k c #95A095",
"+l c #332F2B",
"+z c #4E5056",
"+x c #322D2A",
"+c c #373D46",
"+v c #312D29",
"+b c #2D2A2F",
"+n c #939C93",
"+m c #312B29",
"+M c #3A3E3F",
"+N c #2B2A2D",
"+B c #302B28",
"+V c #838680",
"+C c #7F7E26",
"+Z c #584F42",
"+A c #2D2925",
"+S c #4B4D49",
"+D c #64493A",
"+F c #413A32",
"+G c #353A3A",
"+H c #504C44",
"+J c #2B2723",
"+K c #3C3737",
"+L c #6A6F6E",
"+P c #5D483D",
"+I c #292521",
"+U c #494747",
"+Y c #393534",
"+T c #383533",
"+R c #343239",
"+E c #414849",
"+W c #F5F633",
"+Q c #373532",
"+! c #7D7D45",
"+~ c #7A7E77",
"+^ c #5C6774",
"+/ c #26211E",
"+( c #313036",
"+) c #353130",
"+_ c #645847",
"+` c #3E4446",
"+' c #34312F",
"+] c #302E35",
"+[ c #3D4445",
"+{ c #7A6E4C",
"+} c #2F2C34",
"+| c #2E2C33",
"@  c #3B4243",
"@. c #6F503E",
"@X c #47403B",
"@o c #322D2D",
"@O c #85614D",
"@+ c #4A5455",
"@@ c #56524D",
"@# c #312D2C",
"@$ c #684F41",
"@% c #302D2B",
"@& c #2B2A30",
"@* c #302B2B",
"@= c #4A482A",
"@- c #2F2B2A",
"@; c #666D81",
"@: c #2D2B28",
"@> c #433C37",
"@, c #6F766C",
"@< c #2D2928",
"@1 c #2C2927",
"@2 c #3C393A",
"@3 c #5F5138",
"@4 c #2C2727",
"@5 c #353A3D",
"@6 c #2B2726",
"@7 c #78772C",
"@8 c #4D362D",
"@9 c #785A4A",
"@0 c #2A2725",
"@q c #7C5B44",
"@w c #282523",
"@e c #3E3632",
"@r c #282323",
"@t c #484549",
"@y c #FCFC29",
"@u c #313439",
"@i c #363534",
"@p c #A9A927",
"@a c #EAEA14",
"@s c #353333",
"@d c #3B322F",
"@f c #343332",
"@g c #333331",
"@h c #39322D",
"@j c #332F31",
"@k c #666863",
"@l c #404341",
"@z c #46403D",
"@x c #4B4A2E",
"@c c #675143",
"@v c #302D2E",
"@b c #2E2B2C",
"@n c #654D41",
"@m c #2D2B2B",
"@M c #3D3B3E",
"@N c #6A4C3C",
"@B c #2D292B",
"@V c #2C292A",
"@C c #2B2929",
"@Z c #FBFB0A",
"@A c #333E3E",
"@S c #463B33",
"@D c #614D3D",
"@F c #684A3A",
"@G c #2B2729",
"@H c #2A2728",
"@J c #5B4A41",
"@K c #3E3A35",
"@L c #292727",
"@P c #2A2528",
"@I c #D3D31B",
"@U c #765A4B",
"@Y c #3E3835",
"@T c #413B2E",
"@R c #3D3834",
"@E c #282526",
"@W c #797826",
"@Q c #262324",
"@! c #41352E",
"@~ c #353536",
"@^ c #3A3631",
"@/ c #252323",
"@( c #7F866E",
"@) c #454549",
"@_ c #434747",
"@` c #6B5E40",
"@' c #333134",
"@] c #38322F",
"@[ c #332F34",
"@{ c #594135",
"@} c #313132",
"@| c #524238",
"#  c #312F32",
"#. c #EBEB39",
"#X c #89624D",
"#o c #546372",
"#O c #342E2B",
"#+ c #2E2D2F",
"#@ c #86624A",
"## c #4D5154",
"#$ c #4F3C35",
"#% c #796B47",
"#& c #644D43",
"#* c #3C3D40",
"#= c #403E3A",
"#- c #2B2B2C",
"#; c #2C292D",
"#: c #8D9A96",
"#> c #5D553C",
"#, c #FBFB0D",
"#< c #716849",
"#1 c #81857D",
"#2 c #3D3837",
"#3 c #3B3A35",
"#4 c #A9AC62",
"#5 c #2C2623",
"#6 c #353739",
"#7 c #3B3635",
"#8 c #574640",
"#9 c #252326",
"#0 c #393633",
"#q c #765744",
"#w c #604435",
"#e c #313535",
"#r c #333137",
"#t c #53443C",
"#y c #26221D",
"#u c #404547",
"#i c #363230",
"#p c #646A67",
"#a c #35322F",
"#s c #D5D962",
"#d c #363030",
"#f c #74879B",
"#g c #49433C",
"#h c #33302D",
"#j c #2F2D33",
"#k c #342E2E",
"#l c #4E5158",
"#z c #322C2C",
"#x c #756650",
"#c c #312C2B",
"#v c #624F44",
"#b c #3A3F41",
"#n c #302C2A",
"#m c #8093AA",
"#M c #2B292F",
"#N c #835E4A",
"#B c #8A7E54",
"#V c #766947",
"#C c #2A292E",
"#Z c #8592A5",
"#A c #423F35",
"#S c #2E2A28",
"#D c #373D3E",
"#F c #897C53",
"#G c #86775A",
"#H c #2D2A27",
"#J c #433B36",
"#K c #9AA47E",
"#L c #3D3A3A",
"#P c #70736C",
"#I c #363B3D",
"#U c #FFFF00",
"#Y c #2C2826",
"#T c #7F857E",
"#R c #D5D419",
"#E c #35393C",
"#W c #624A3A",
"#Q c #867850",
"#! c #393A36",
"#~ c #403733",
"#^ c #3F4853",
"#/ c #292623",
"#( c #33373A",
"#) c #34353B",
"#_ c #393636",
"#` c #3E3731",
"#' c #282422",
"#] c #393436",
"#[ c #373434",
"#{ c #272221",
"#} c #80876B",
"#| c #262220",
"$  c #363233",
"$. c #81724B",
"$X c #353232",
"$o c #80724A",
"$O c #4E463A",
"$+ c #353032",
"$@ c #333230",
"$# c #7F7049",
"$$ c #333030",
"$% c #7D8593",
"$& c #312E2E",
"$* c #686A5A",
"$= c #302E2D",
"$- c #4A4236",
"$; c #312C2E",
"$: c #54534D",
"$> c #484434",
"$, c #302C2D",
"$< c #513D33",
"$1 c #443F3A",
"$2 c #2F2C2C",
"$3 c #2E2A2B",
"$4 c #423D38",
"$5 c #2D2A2A",
"$6 c #796843",
"$7 c #3C3A3C",
"$8 c #2C2829",
"$9 c #353B3F",
"$0 c #373741",
"$q c #2A2827",
"$w c #3F3935",
"$e c #2A2627",
"$r c #292626",
"$t c #554844",
"$y c #383638",
"$u c #43362F",
"$i c #B0B77C",
"$p c #444A47",
"$a c #363436",
"$s c #F7F830",
"$d c #30333A",
"$f c #252222",
"$g c #715745",
"$h c #343434",
"$j c #353235",
"$k c #765640",
"$l c #575753",
"$z c #655C43",
"$x c #323232",
"$c c #333033",
"$v c #323032",
"$b c #322E32",
"$n c #303030",
"$m c #312E31",
"$M c #73523D",
"$N c #362F2C",
"$B c #45413E",
"$V c #302E30",
"$C c #626961",
"$Z c #2F2E2F",
"$A c #7B6C48",
"$S c #332F29",
"$D c #7A6C47",
"$F c #796A46",
"$G c #2D2A2D",
"$H c #2C2A2C",
"$J c #2C282C",
"$K c #523A2D",
"$L c #7D8782",
"$P c #2B282B",
"$I c #D5D41F",
"$U c #2A282A",
"$Y c #5D615C",
"$T c #4A4A50",
"$R c #292629",
"$E c #E4E85C",
"$W c #5F4A3D",
"$Q c #373A3A",
"$! c #2C2722",
"$~ c #9FA6A0",
"$^ c #3C3735",
"$/ c #6B7C8E",
"$( c #616977",
"$) c #45464B",
"$_ c #3A3533",
"$` c #333436",
"$' c #242024",
"$] c #646670",
"$[ c #383331",
"${ c #5C5851",
"$} c #313234",
"$| c #474343",
"%  c #444540",
"%. c #574235",
"%X c #2F3232",
"%o c #352F2E",
"%O c #7F8891",
"%+ c #43433F",
"%@ c #444140",
"%# c #352D2E",
"%$ c #67685F",
"%% c #332F2C",
"%& c #FBFB19",
"%* c #2D2E30",
"%= c #322F2B",
"%- c #85634B",
"%; c #332D2C",
"%: c #322D2B",
"%> c #483E3A",
"%, c #464038",
"%< c #322B2B",
"%1 c #302D29",
"%2 c #2C2A2F",
"%3 c #302B29",
"%4 c #4E514D",
"%5 c #2F2B28",
"%6 c #825F48",
"%7 c #2E2927",
"%8 c #897B52",
"%9 c #534C48",
"%0 c #363C3C",
"%q c #2C2925",
"%w c #483930",
"%e c #634B3A",
"%r c #413A33",
"%t c #353A3B",
"%y c #956A54",
"%u c #3B3737",
"%i c #404753",
"%p c #494B48",
"%a c #86774F",
"%s c #3A3736",
"%d c #695E4D",
"%f c #614738",
"%g c #292522",
"%h c #252228",
"%j c #6B7066",
"%k c #3A3336",
"%l c #34323A",
"%z c #83754C",
"%x c #373533",
"%c c #272320",
"%v c #26231F",
"%b c #373333",
"%n c #755445",
"%m c #8F684E",
"%M c #656B6A",
"%N c #454744",
"%B c #82734B",
"%V c #26211F",
"%C c #725642",
"%Z c #303036",
"%A c #3F4248",
"%S c #758073",
"%D c #33312F",
"%F c #49423E",
"%G c #342F30",
"%H c #332F2F",
"%J c #766953",
"%K c #322F2E",
"%L c #382E2A",
"%P c #312F2D",
"%I c #322D2E",
"%U c #302D2C",
"%Y c #302B2C",
"%T c #2F2B2B",
"%R c #342C26",
"%E c #6D6454",
"%W c #2E2B2A",
"%Q c #3D3B3C",
"%! c #2D2929",
"%~ c #686E7A",
"%^ c #2C2928",
"%/ c #3D393C",
"%( c #70726E",
"%) c #877B53",
"%_ c #3B393A",
"%` c #403A35",
"%' c #2B2727",
"%] c #544D42",
"%[ c #2A2726",
"%{ c #3B373A",
"%} c #292725",
"%| c #141417",
"&  c #34363D",
"&. c #292525",
"&X c #5C5E57",
"&o c #383737",
"&O c #5A463E",
"&+ c #48474A",
"&@ c #97B0C9",
"&# c #272323",
"&$ c #544C38",
"&% c #363535",
"&& c None",
/* pixels */
"&&&&&&&&&&&&&&&&&&&&&&&&&&&&&&&&&&&&&&&&&&&&&&&&&&&&&&&&&&&&&&&&&&&&&&&&&&&&&&&&&&&&&&&&&&&&&&&&",
"&&&&&&&&&&&&&&&&&&&&&&&&&&&&&&&&&&&&&&&&&&&&&&&&&&&&&&+z&&&&&&&&&&&&&&&&&&&&&&&&&&&&&&&&&&&&&&&&",
"&&&&&&&&&&&&&&&&&&&&&&&&&&&&&&&&&&&&&&&&&&&&&&&&&&&&Or#co] 0&&&&&&&&&&&&&&&&&&&&&&&&&&&&&&&&&&&&",
"&&&&&&&&&&&&&&&&&&&&&&&&&&&&&&&&&&&&&&&&&&&&&&&&&&.JXB#`%d z.*$)&&&&&&&&&&&&&&&&&&&&&&&&&&&&&&&&",
"&&&&&&&&&&&&&&&&&&&&&&&&&&&&&&&&&&&&&&&&&&&&&&&&&&X|Ovog%E+1.@#Y+xX.&&&&&&&&&&&&&&&&&&&&&&&&&&&&",
"&&&&&&&&&&&&&&&&&&&&&&&&&&&&&&&&&&&&&&&&&&&&&&&&@o o.s.m%'+sOJ.|#g TXQ&&&&&&&&&&&&&&&&&&&&&&&&&&",
"&&&&&&&&&&&&&&&&&&&&&&&&&&&&&&&&&&&&&&&&&&&&&& h#* :Xm%J+Y.VXP${.Z.) A#O%s&&&&&&&&&&&&&&&&&&&&&&",
"&&&&&&&&&&&&&&&&&&&&&&&&&&&&&&&&&&&&#U#U#U#U@pO(Xr##o,+Z%]XRO7%Y@4%7X@ H No_@)&&&&&&&&&&&&&&&&&&",
"&&&&&&&&&&&&&&&&&&&&&&&&&&&&&&&&#U#U#U#U#U$I@mO..t Q k%`$w+KXQO:Or%3X&+m H+x+x%o%/&&&&&&&&&&&&&&",
"&&&&&&&&&&&&&&&&&&&&&&&&&&&&#U#U#U#U#U#U+6.<ob+d+oX$+8Xz@^#J@YO<#_%u.mXB+B AXM%:#z#d&+&&&&&&&&&&",
"&&&&&&&&&&&&&&&&&&&&&&&&&&#U#U#U#U#U#U U@WXs+@$* D$F$DX$.+X2o8@>$^X6+_#7%K%7XVo_XMoQoQ#2&&&&&&&&",
"&&&&&&&&&&&&&&&&&&&&&&&&#U#U#U#U#U#U#U p$&.[+%#<ol$Dof$A -#%#>oq$4o* ;#G#xO<.AXS%;Xvo^oQ#d$|&&&&",
"&&&&&&&&&&&&&&&&&&&&&&#U#U#U#U#U#U#U#R@mO^X^#0+F.Y$F <O| *X{O{#V&$oZo#ON.B+Hoe$a$,%<oQ#k#]&&&&&&",
"&&&&&&&&&&&&&&&&&&&&#U#U#U#U#U#U#U+6@=@}oi +X(+Q.!o&@`X{.n$#$o$..lo>$>@K@X.TX}._%@.s%I.#$]&&&&&&",
"&&&&&&&&&&&&&&&&&&#U#U#U#U#U#U#U@Z /@C@# @.jopX^%x$_%rO' Y$oX`%BX~X~ OO6#A 3@z E@@#L$jX0&&&&&&&&",
"&&&&&&&&&&&&&&&&&&#U#U#U#U#U#U#UOK =$q.XOiOuX^ov@fO4 '@RX<o.O`%zO2O2O;#Q.~Xj#3$Boj%{%G&&&&&&&&&&",
"&&&&&&&&&&&&&&&&#U#U#U#U#U#U#U+>@m@$X+o1#D+JOS SX^$x@iO<#7.9$-.W%aO=XYO$OO.4+{@T$[$ OE&&&&&&&&&&",
"&&&&&&&&&&&&&&&&#U#U#U#U#U#U.(Ozo9.%$K$k+'OU#P%t#aO_#~O]XWX6 ro{OG.'%8#FXZOXOpo3%bXK&&&&&&&&&&&&",
"&&&&&&&&&&&&&&#U#U#U#U#U#U#,+Co@On 1X;%q+vo<$5Og f%$.EXW$hO] ! ^.L%,$z%)#BoN@3XuX]&&&&&&&&&&&&&&",
"&&&&&&&&&&&&&&#U#U#U#U#U#U+y@COZ@/o;%Wo[%j.i+lXdOL&X+E%%OP#t&%&oXI E$1$O 6$6@]O(X9&&&&&&&&&&&&&&",
"&&&&&&&&&&&&&&#U#U#U#U#UO+$5OR.N.h%.o'@1 7@AX1X=XeOf#hO,.XOwO%&oo7#L%Q P%Fo,#[.`#.&&&&&&&&&&&&&&",
"&&&&&&&&&&&&&&#U#U#U#U@a@x@b%UoK$CotXpO!%^%1 m@,#HoWoIOn%p X+v@c.D$y+3o%%Q@2O~ 8#U&&&&&&&&&&&&&&",
"&&&&&&&&&&&&&&#U#U#Uo:X7+,@6%nO1OZ aX[#eXA$Woh%g%X.{#v@N+T%D$lor+MXF$t e+;%_+!%&#U&&&&&&&&&&&&&&",
"&&&&&&&&&&&&&&#U#U#U &O}o6+k$`@: CXL@wO#Xq.U.7$g+lXhX $Q xoR$&OFXd.eOD 9@s@M.>#U#U&&&&&&&&&&&&&&",
"&&&&&&&&&&&&&&#U#U@I+=.So(o1#-XB `Ol%6@eX5#T@+.M@N@!$nOc+S@Doz )$Xoo#: w.-#4XH#U#U&&&&&&&&&&&&&&",
"&&&&&&&&&&&&&&#UoJOb@EXO%e.0+h#YXy+~.  Bo/OLoAoMOCoyO oW#!$~XC+9@n.$@~%%OA$s#U#U#U&&&&&&&&&&&&&&",
"&&&&&&&&&&&&&&oc@7 =o2 M$p@<Xn./.8%vo++A%}#wO)O5+VXC+fXN.1$}XxOq.G@9#i$7Oj#U#U#U#U&&&&&&&&&&&&&&",
"&&&&&&&&&&&&&&.b.H.S.-$8+$#S%c%f@qXE@:#yO[.o@|OgOx.,%c #@.+) |O/$L+`oO j#U#U#U#U#U&&&&&&&&&&&&&&",
"&&&&&&&&&&&&&&@Lo5oV@8XbXl@0%+ _#/@1+q@1+a$S.6%=oa Z   (+[oPXi@J#E.,.RO>#U#U#U#U#U&&&&&&&&&&&&&&",
"&&&&&&&&&&&&$3$VX>.P+r@- Von%^%g+G+Jo` %OY++OooHX-.wX*.C.&$f.}+D$NOtoC#U#U#U#U#U#U&&&&&&&&&&&&&&",
"&&&&&&&&&&OQoE$,@O%L$HXU [o  u+u#n+/ ,% $MXoXx+I ~@g@%Oa..oB 4O0%T#}XT#U#U#U#U#U&&&&&&&&&&&&&&&&",
"&&&&&&&& } G%N 2.a@*@#%[o! l.yOB@S@<$Y$! { C#W.:o2@ %5o$oG@U$v%!OV$E#U#U#U#U#U#U&&&&&&&&&&&&&&&&",
"&&&&&&&&ou#++j#1X#OnOm$<%^#{#6O&+XOs.].zXJoF%RoX.IXtOL@l#pX|$=$Z$i#U#U#U#U#U#U&&&&&&&&&&&&&&&&&&",
"&&&&&&&&@Bok y@Kox@r&#@{#q+P#n%V$:%4%m%%Of#'+n@:.F$@.c#uoD#(@b%S+W#U#U#U#U#U#U&&&&&&&&&&&&&&&&&&",
"&&&&&&&& b$R+&$;@v.Q@k.p+t%woYOm+p#=+:Xb#@+5$e#IXB@V F sod+)X8#s#U#U#U#U#U#U&&&&&&&&&&&&&&&&&&&&",
"&&&&&&&&&&X)@Gom >$V@b@6oU@6$u#X@d+=%^#|@h%C#$O]$r#bo0.K =+##K#U#U#U#U#U#U&&&&&&&&&&&&&&&&&&&&&&",
"&&&&&&&&&&&&$d$P tok$m 5%TO9#5 H@F.OOkO-.2%0OM $$v.kOyXD$2Oe i#U#U#U#U#U&&&&&&&&&&&&&&&&&&&&&&&&",
"&&&&&&&&&&&&&&&&X!$R W@j$$@HXX%P@5%H+- R&. co=X,%-#&+g$2%AOh#U#U#U#U#U&&&&&&&&&&&&&&&&&&&&&&&&&&",
"&&&&&&&&&&&&&&&&&&#)@B q+ .mokX3$e.f J%y&O$c@Q@_+N%##+$G@(@y#U#U#U#U&&&&&&&&&&&&&&&&&&&&&&&&&&&&",
"&&&&&&&&&&&&&&&&&&&&&&+}+<#;$+.v$U%(+e$=os# %k#9+7$9X:+0+4#U#U#U&&&&&&&&&&&&&&&&&&&&&&&&&&&&&&&&",
"&&&&&&&&&&&&&&&&&&&&&&&&& $Pom$b@[+bO* bX%+w#N#8#CoLXcOd#U#U&&&&&&&&&&&&&&&&&&&&&&&&&&&&&&&&&&&&",
"&&&&&&&&&&&&&&&&&&&&&&&&&&o4+b$J n@'Xgo~$'@PXkO3 LO@#o&&&&&&&&&&&&&&&&&&&&&&&&&&&&&&&&&&&&&&&&&&",
"&&&&&&&&&&&&&&&&&&&&&&&&&&&&&&%Z I#M+(#r%2+L%M@uXG#^&&&&&&&&&&&&&&&&&&&&&&&&&&&&&&&&&&&&&&&&&&&&",
"&&&&&&&&&&&&&&&&&&&&&&&&&&&&&&&&OWo}#M+]+RXf%h.3#M$/&&&&&&&&&&&&&&&&&&&&&&&&&&&&&&&&&&&&&&&&&&&&",
"&&&&&&&&&&&&&&&&&&&&&&&&&&&&&&&&&&&&#jo)+| ]O8.rX4&&&&&&&&&&&&&&&&&&&&&&&&&&&&&&&&&&&&&&&&&&&&&&",
"&&&&&&&&&&&&&&&&&&&&&&&&&&&&&&&&&&&&&&$0+|@&.5+c#f&&&&&&&&&&&&&&&&&&&&&&&&&&&&&&&&&&&&&&&&&&&&&&",
"&&&&&&&&&&&&&&&&&&&&&&&&&&&&&&&&&&&&&&&&OH.d%lX_&&&&&&&&&&&&&&&&&&&&&&&&&&&&&&&&&&&&&&&&&&&&&&&&",
"&&&&&&&&&&&&&&&&&&&&&&&&&&&&&&&&&&&&&&&&&&&&&&&&&&&&&&&&&&&&&&&&&&&&&&&&&&&&&&&&&&&&&&&&&&&&&&&&"
};
