/* XPM */
static char *noname[] = {
/* width height ncolors chars_per_pixel */
"48 48 930 2",
/* colors */
"   c Black",
" . c #595F65",
" X c #7D7D45",
" o c #6B7066",
" O c #5A4436",
" + c #483930",
" @ c #483931",
" # c #6C5243",
" $ c #242024",
" % c #7E5F4B",
" & c #5A463E",
" * c #483A33",
" = c #5A473B",
" - c #7E614D",
" ; c #362F2C",
" : c #5A493E",
" > c #363030",
" , c #483E3A",
" < c #36322E",
" 1 c #36322F",
" 2 c #363230",
" 3 c #363232",
" 4 c #363233",
" 5 c #363335",
" 6 c #7D8593",
" 7 c #363432",
" 8 c #363435",
" 9 c #363436",
" 0 c #6B7983",
" q c #484137",
" w c #363533",
" e c #363534",
" r c #363535",
" t c #7D8782",
" y c #484434",
" u c #6B7C8E",
" i c #484549",
" p c #C77F4A",
" a c #48474A",
" s c #6C6142",
" d c #363B3C",
" f c #363B3D",
" g c #363C3C",
" h c #7E6F48",
" j c #5A564D",
" k c #363D3E",
" l c #7E704A",
" z c #5A5751",
" x c #C5CA72",
" c c #5A5F5A",
" v c #6D4E3E",
" b c #FBFB09",
" n c #FBFB0A",
" m c #FBFB0C",
" M c #FBFB0D",
" N c #FBFB0E",
" B c #5B453C",
" V c #FBFB19",
" C c #372D26",
" Z c #5B4638",
" A c #5B463A",
" S c #493A36",
" D c #252222",
" F c #252228",
" G c #252323",
" H c #252325",
" J c #252326",
" K c #37312B",
" L c #5B4A41",
" P c #7E837B",
" I c #37322F",
" U c #373230",
" Y c #37332F",
" T c #373333",
" R c #37342F",
" E c #373432",
" W c #373434",
" Q c #373436",
" ! c #373532",
" ~ c #373533",
" ^ c #373534",
" / c #373537",
" ( c #49423E",
" ) c #49433C",
" _ c #373741",
" ` c #49453D",
" ' c #909790",
" ] c #B4B41F",
" [ c #494642",
" { c #49472A",
" } c #373A3A",
" | c #494743",
".  c #494747",
".. c #373D3E",
".X c #373D46",
".o c #7F7049",
".O c #7F704A",
".+ c #6D6454",
".@ c #494B48",
".# c #7F724D",
".$ c #494C48",
".% c #909DB0",
".& c #374041",
".* c #5B5F67",
".= c #EAEA14",
".- c #6E4F3B",
".; c #6D6F68",
".: c #6D6F6A",
".> c #7F7E26",
"., c #141417",
".< c #26211E",
".1 c #26211F",
".2 c #FCFC29",
".3 c #382E2A",
".4 c #26221D",
".5 c #262220",
".6 c #FCFD32",
".7 c #26231F",
".8 c #4A3C32",
".9 c #262322",
".0 c #262323",
".q c #262324",
".w c #6E5546",
".e c #6D7570",
".r c #5C4940",
".t c #262422",
".y c #26252B",
".u c #38322F",
".i c #383331",
".p c #383332",
".a c #7F857E",
".s c #7F866E",
".d c #383433",
".f c #383434",
".g c #383436",
".h c #383437",
".j c #383533",
".k c #4A4236",
".l c #383634",
".z c #383638",
".x c #38363A",
".c c #7F8891",
".v c #383735",
".b c #383737",
".n c #38373A",
".m c #ED9553",
".M c #6D7D87",
".N c #38393A",
".B c #4A472A",
".V c #4A482A",
".C c #4A492B",
".Z c #383C3F",
".A c #919B94",
".S c #4A4A50",
".D c #383E3F",
".F c #4A4B4F",
".G c #4A4B50",
".H c #5C5851",
".J c #80724A",
".K c #80724B",
".L c #80724C",
".P c #5C5E57",
".I c #4A5455",
".U c #EBEB39",
".Y c #6F503E",
".T c #6F5243",
".R c #FDFD08",
".E c #272220",
".W c #272221",
".Q c #272222",
".! c #5C6774",
".~ c #5D483D",
".^ c #272320",
"./ c #272323",
".( c #272425",
".) c #39322D",
"._ c #393231",
".` c #393434",
".' c #393436",
".] c #C7D7EA",
".[ c #4B413F",
".{ c #80876B",
".} c #393533",
".| c #393534",
"X  c #393536",
"X. c #39362F",
"XX c #393633",
"Xo c #393634",
"XO c #393635",
"X+ c #393636",
"X@ c #4B4534",
"X# c #393A36",
"X$ c #5D553C",
"X% c #4B4A2E",
"X& c #6F6344",
"X* c #81704A",
"X= c #81724B",
"X- c #4B4C49",
"X; c #81734B",
"X: c #81734D",
"X> c #4B4D49",
"X, c #8093AA",
"X< c #81764F",
"X1 c #4B5252",
"X2 c #5D6158",
"X3 c #5D615C",
"X4 c #94694F",
"X5 c #5D6563",
"X6 c #5D6577",
"X7 c #825F48",
"X8 c #818148",
"X9 c #28231F",
"X0 c #282323",
"Xq c #28241D",
"Xw c #4C3D32",
"Xe c #282421",
"Xr c #282422",
"Xt c #282424",
"Xy c #6F766C",
"Xu c #282523",
"Xi c #282525",
"Xp c #282526",
"Xa c #282527",
"Xs c #282528",
"Xd c #282624",
"Xf c #282629",
"Xg c #3A332F",
"Xh c #3A3332",
"Xj c #3A3336",
"Xk c #81857D",
"Xl c #28272B",
"Xz c #3A3531",
"Xx c #3A3532",
"Xc c #3A3533",
"Xv c #3A3631",
"Xb c #3A3633",
"Xn c #3A3636",
"Xm c #3A3736",
"XM c #3A3737",
"XN c #3A3833",
"XB c #818A85",
"XV c #5E523A",
"XC c #5E5645",
"XZ c #939C93",
"XA c #3A3E3F",
"XS c #3A3F41",
"XD c #8191A4",
"XF c #3A404A",
"XG c #82734B",
"XH c #82735B",
"XJ c #5E5F59",
"XK c #4D362D",
"XL c #EDED12",
"XP c #956A54",
"XI c #835E4A",
"XU c #70726E",
"XY c #70736C",
"XT c #83604C",
"XR c #4C5A6A",
"XE c Yellow",
"XW c #29241F",
"XQ c IvoryBlack",
"X! c #715647",
"X~ c #5F4A3D",
"X^ c #292520",
"X/ c #292521",
"X( c #292522",
"X) c #715745",
"X_ c #4D3E34",
"X` c #292525",
"X' c #3B322F",
"X] c #292623",
"X[ c #292624",
"X{ c #292625",
"X} c #292626",
"X| c #715848",
"o  c #292629",
"o. c #292725",
"oX c #292726",
"oo c #292727",
"oO c #29272B",
"o+ c #29272E",
"o@ c #292828",
"o# c #29282D",
"o$ c #3B3631",
"o% c #3B3635",
"o& c #3B3732",
"o* c #A6A525",
"o= c #3B3737",
"o- c #3B373A",
"o; c #715D51",
"o: c #5F5138",
"o> c #3B3938",
"o, c #3B393A",
"o< c #3B3A35",
"o1 c #716849",
"o2 c #3B4243",
"o3 c #83754C",
"o4 c #83754D",
"o5 c #4D5154",
"o6 c #716C51",
"o7 c #604435",
"o8 c #EEEE11",
"o9 c #EEEE12",
"o0 c #725642",
"oq c #2A2420",
"ow c #4E3E35",
"oe c #4E3E36",
"or c #2A2528",
"ot c #2A2622",
"oy c #5F6B6E",
"ou c #2A2623",
"oi c #2A2627",
"op c #2A2629",
"oa c #2A2725",
"os c #2A2726",
"od c #2A2727",
"of c #2A2728",
"og c #2A2729",
"oh c #2A272A",
"oj c #838680",
"ok c #2A2827",
"ol c #2A2829",
"oz c #2A282A",
"ox c #2A282B",
"oc c #2A292E",
"ov c #2A292F",
"ob c #3C3735",
"on c #3C3736",
"om c #3C3737",
"oM c #A7A625",
"oN c #3C3837",
"oB c #3C393A",
"oV c #4E463A",
"oC c #3C3A37",
"oZ c #3C3A38",
"oA c #3C3A3C",
"oS c #3C3A3E",
"oD c #3C3D40",
"oF c #3C3D48",
"oG c #605746",
"oH c #726646",
"oJ c #605A42",
"oK c #95A095",
"oL c #A7AE79",
"oP c #84764D",
"oI c #4E5056",
"oU c #3C4441",
"oY c #4E514D",
"oT c #4E5158",
"oR c #734B34",
"oE c #606268",
"oW c #73523D",
"oQ c #614738",
"o! c #85614D",
"o~ c #4F3C35",
"o^ c #85634B",
"o/ c #85644E",
"o( c #2B2624",
"o) c #2B2723",
"o_ c #2B2725",
"o` c #2B2726",
"o' c #2B2727",
"o] c #2B2729",
"o[ c #614D3D",
"o{ c #2B2827",
"o} c #2B282B",
"o| c #2B282C",
"O  c #2B2928",
"O. c #2B2929",
"OX c #2B292D",
"Oo c #2B292F",
"OO c #2B2A2D",
"O+ c #2B2A30",
"O@ c #2B2B2C",
"O# c #3D3834",
"O$ c #3D3835",
"O% c #3D3837",
"O& c #3D393A",
"O* c #3D393C",
"O= c #3D3A38",
"O- c #3D3A3A",
"O; c #3D3B3C",
"O: c #3D3B3E",
"O> c #3D3C36",
"O, c #848F9B",
"O< c #4F4D46",
"O1 c #3D4445",
"O2 c #85784E",
"O3 c #4F5256",
"O4 c #61645F",
"O5 c #86624A",
"O6 c #F0F13F",
"O7 c #F0F143",
"O8 c #616977",
"O9 c #624A3A",
"O0 c #2C2623",
"Oq c #2C2722",
"Ow c #2C2726",
"Oe c #2C2727",
"Or c #504134",
"Ot c #2C2826",
"Oy c #2C2829",
"Ou c #2C282C",
"Oi c #2C2925",
"Op c #2C2926",
"Oa c #2C2927",
"Os c #2C2928",
"Od c #2C2929",
"Of c #2C292A",
"Og c #2C292C",
"Oh c #2C292D",
"Oj c #2C292F",
"Ok c #3E3632",
"Ol c #624F44",
"Oz c #2C2A27",
"Ox c #2C2A2B",
"Oc c #2C2A2C",
"Ov c #2C2A2D",
"Ob c #2C2A2F",
"On c #3E3731",
"Om c #50443E",
"OM c #2C2B2E",
"ON c #3E3835",
"OB c #3E3936",
"OV c #3E3A35",
"OC c #3E3A39",
"OZ c #A9A927",
"OA c #3E3B3B",
"OS c #3E3B3E",
"OD c #62573D",
"OF c #504C44",
"OG c #A9AC62",
"OH c #8592A5",
"OJ c #74674F",
"OK c #BBBC4A",
"OL c #3E4446",
"OP c #86774F",
"OI c #86775A",
"OU c #86784F",
"OY c #867850",
"OT c #867950",
"OR c #3E4654",
"OE c #513529",
"OW c #626660",
"OQ c #75533E",
"O! c #755445",
"O~ c #626860",
"O^ c #626961",
"O/ c #513D33",
"O( c #513E33",
"O) c #634B3A",
"O_ c #3F322D",
"O` c #97B0C9",
"O' c #634C3F",
"O] c #634C40",
"O[ c #747882",
"O{ c #634D43",
"O} c #2D2924",
"O| c #2D2925",
"+  c #2D2928",
"+. c #2D2929",
"+X c #2D292B",
"+o c #3F3632",
"+O c #2D2A27",
"++ c #2D2A29",
"+@ c #2D2A2A",
"+# c #2D2A2D",
"+$ c #2D2A2F",
"+% c #2D2B28",
"+& c #2D2B2A",
"+* c #2D2B2B",
"+= c #2D2B30",
"+- c #51453A",
"+; c #2D2C2B",
"+: c #747E73",
"+> c #3F3935",
"+, c #3F3936",
"+< c #2D2E30",
"+1 c #868D83",
"+2 c #2D2F2C",
"+3 c #3F403B",
"+4 c #756650",
"+5 c #3F4246",
"+6 c #3F4248",
"+7 c #74879B",
"+8 c #756A4B",
"+9 c #635E54",
"+0 c #3F454E",
"+q c #877B53",
"+w c #3F4853",
"+e c #3F4855",
"+r c #515751",
"+t c #E0E146",
"+y c #523A2D",
"+u c #64493A",
"+i c #765640",
"+p c #765744",
"+a c #644C3D",
"+s c #644D43",
"+d c #765A4B",
"+f c #524238",
"+g c #2E2927",
"+h c #2E2A27",
"+j c #2E2A28",
"+k c #636F74",
"+l c #2E2A2A",
"+z c #2E2A2B",
"+x c #2E2A2D",
"+c c #403733",
"+v c #2E2B28",
"+b c #2E2B2A",
"+n c #2E2B2B",
"+m c #2E2B2C",
"+M c #2E2B2E",
"+N c #2E2C2A",
"+B c #2E2C2C",
"+V c #2E2C32",
"+C c #2E2C33",
"+Z c #2E2D2F",
"+A c #757F79",
"+S c #403A35",
"+D c #403A36",
"+F c #758073",
"+G c #2E2E32",
"+H c #403B37",
"+J c #403C3B",
"+K c #524936",
"+L c #ABAB23",
"+P c #403D37",
"+I c #403E3A",
"+U c #645847",
"+Y c #403F42",
"+T c #999F6E",
"+R c #404138",
"+E c #766945",
"+W c #766947",
"+Q c #404341",
"+! c #404349",
"+~ c #766953",
"+^ c #52514C",
"+/ c #404547",
"+( c #404749",
"+) c #887A51",
"+_ c #404753",
"+` c #52554F",
"+' c #404951",
"+] c #646670",
"+[ c #AD7A57",
"+{ c #89624D",
"+} c #646A67",
"+| c #41342E",
"@  c #41342F",
"@. c #654D41",
"@X c #41352E",
"@o c #2F2929",
"@O c #2F2A27",
"@+ c #2F2A2B",
"@@ c #2F2B26",
"@# c #2F2B28",
"@$ c #2F2B29",
"@% c #2F2B2A",
"@& c #2F2B2B",
"@* c #53443C",
"@= c #2F2B2C",
"@- c #2F2B2E",
"@; c #2F2C2A",
"@: c #2F2C2B",
"@> c #2F2C2C",
"@, c #2F2C2D",
"@< c #2F2C2E",
"@1 c #2F2C34",
"@2 c #2F2D32",
"@3 c #2F2D33",
"@4 c #413A32",
"@5 c #413A33",
"@6 c #2F2E2E",
"@7 c #2F2E2F",
"@8 c #2F2E31",
"@9 c #2F2E33",
"@0 c #413B2E",
"@q c #413B35",
"@w c #413B36",
"@e c #2F2F32",
"@r c #413C31",
"@t c #413C37",
"@y c #888E84",
"@u c #413D38",
"@i c #2F3132",
"@p c #2F3232",
"@a c #534C48",
"@s c #76879B",
"@d c #655C43",
"@f c #9AA47E",
"@g c #41454C",
"@h c #41454F",
"@j c #656056",
"@k c #897A4F",
"@l c #414849",
"@z c #897B52",
"@x c #897C52",
"@c c #897C53",
"@v c #897C54",
"@b c #535762",
"@n c #535855",
"@m c #656965",
"@M c #E2E459",
"@N c #656B6A",
"@B c #656C66",
"@V c #785A4A",
"@C c #664E3F",
"@Z c #30292A",
"@A c #664F3E",
"@S c #302B27",
"@D c #302B28",
"@F c #302B29",
"@G c #302B2B",
"@H c #302B2C",
"@J c #302C2A",
"@K c #302C2C",
"@L c #302C2D",
"@P c #302C2E",
"@I c #302C2F",
"@U c #777E79",
"@Y c #302D29",
"@T c #302D2B",
"@R c #302D2C",
"@E c #302D2D",
"@W c #302D2E",
"@Q c #302D2F",
"@! c #302D32",
"@~ c #302E2C",
"@^ c #302E2D",
"@/ c #302E2E",
"@( c #302E30",
"@) c #302E34",
"@_ c #302E35",
"@` c #302F2F",
"@' c #302F32",
"@] c Gray19",
"@[ c #303036",
"@{ c #423D38",
"@} c #423D39",
"@| c #303132",
"#  c #ADAC25",
"#. c #423E38",
"#X c #423F35",
"#o c #423F3A",
"#O c #544C38",
"#+ c #30333A",
"#@ c #544D42",
"## c #786A46",
"#$ c #786B47",
"#% c #54534D",
"#& c #545351",
"#* c #8A7C53",
"#= c #8A7D54",
"#- c #8A7E54",
"#; c #BFC68E",
"#: c #666863",
"#> c #787728",
"#, c #78772C",
"#< c #674A3B",
"#1 c #545D65",
"#2 c #553F32",
"#3 c #F5F51C",
"#4 c #43342A",
"#5 c #F5F633",
"#6 c #666D81",
"#7 c #43362F",
"#8 c #546372",
"#9 c #554439",
"#0 c #312B28",
"#q c #312B29",
"#w c #312B2B",
"#e c #675143",
"#r c #312C29",
"#t c #312C2A",
"#y c #312C2B",
"#u c #312C2E",
"#i c #312D29",
"#p c #312D2B",
"#a c #312D2C",
"#s c #312E2C",
"#d c #312E2D",
"#f c #312E2E",
"#g c #312E2F",
"#h c #312E30",
"#j c #312E31",
"#k c #433B2F",
"#l c #433B36",
"#z c #312F2D",
"#x c #312F31",
"#c c #312F32",
"#v c #554844",
"#b c #433C37",
"#n c #313030",
"#m c #313036",
"#M c #313131",
"#N c #313132",
"#B c #433E3C",
"#V c #313234",
"#C c #43403B",
"#Z c #313439",
"#A c #313535",
"#S c #796843",
"#D c #43423E",
"#F c #675C40",
"#G c #43433F",
"#H c #796A46",
"#J c #434447",
"#K c #796B46",
"#L c #796B47",
"#P c #55523F",
"#I c #434747",
"#U c #67685F",
"#Y c #8B8171",
"#T c #676961",
"#R c #797826",
"#E c #79782A",
"#W c #684A3A",
"#Q c #684B37",
"#! c #8C664F",
"#~ c #44342E",
"#^ c #E4E85C",
"#/ c #44362F",
"#( c #684F41",
"#) c #322A2A",
"#_ c #322B2B",
"#` c #44382E",
"#' c #322C2A",
"#] c #322C2B",
"#[ c #322C2C",
"#{ c #797E7B",
"#} c #322D29",
"#| c #322D2A",
"$  c #322D2B",
"$. c #322D2C",
"$X c #322D2D",
"$o c #322D2E",
"$O c #322E2A",
"$+ c #322E2B",
"$@ c #322E2D",
"$# c #322E32",
"$$ c #322F2B",
"$% c #322F2C",
"$& c #322F2E",
"$* c #322F32",
"$= c #443C34",
"$- c #323032",
"$; c #323132",
"$: c #323135",
"$> c #323232",
"$, c #323239",
"$< c #443F3A",
"$1 c #8B9186",
"$2 c #444140",
"$3 c #323737",
"$4 c #444448",
"$5 c #444540",
"$6 c #56524D",
"$7 c #7A6C47",
"$8 c #7A6E4C",
"$9 c #565550",
"$0 c #444A47",
"$q c #565751",
"$w c #D3D31B",
"$e c #D3D320",
"$r c #32435A",
"$t c #686A5A",
"$y c #574235",
"$u c #686E7A",
"$i c #F7F830",
"$p c #7A7E77",
"$a c #332D2C",
"$s c #332D2D",
"$d c #574640",
"$f c #332E2B",
"$g c #332E2E",
"$h c #453B36",
"$j c #332F29",
"$k c #332F2B",
"$l c #332F2C",
"$z c #332F2D",
"$x c #332F2F",
"$c c #332F31",
"$v c #332F34",
"$b c #687483",
"$n c #33302C",
"$m c #33302D",
"$M c #33302E",
"$N c #333030",
"$B c #333031",
"$V c #333033",
"$C c #453D3C",
"$Z c #33312F",
"$A c #333132",
"$S c #333133",
"$D c #333134",
"$F c #333137",
"$G c #333139",
"$H c #33313B",
"$J c #333230",
"$K c #333231",
"$L c #453F37",
"$P c #333331",
"$I c #33333C",
"$U c #333435",
"$Y c #333436",
"$T c #33343A",
"$R c #45413E",
"$E c #45423B",
"$W c #7A889B",
"$Q c #33373A",
"$! c #454444",
"$~ c #695E4D",
"$^ c #454549",
"$/ c #7B6C48",
"$( c #454647",
"$) c #45464B",
"$_ c #45464C",
"$` c #7B6D47",
"$' c #7B6D48",
"$] c #454744",
"$[ c #454844",
"${ c #333E3E",
"$} c #575753",
"$| c #B0B77C",
"%  c #575852",
"%. c #D4D41D",
"%X c #575B55",
"%o c #D4D659",
"%O c #6A4C3C",
"%+ c #696D66",
"%@ c #7C5B44",
"%# c #6A4F3F",
"%$ c #342C26",
"%% c #342C2A",
"%& c #7B7E75",
"%* c #463932",
"%= c #342E2B",
"%- c #342E2C",
"%; c #342E2D",
"%: c #342E2E",
"%> c #463B33",
"%, c #463B35",
"%< c #342F2B",
"%1 c #342F2C",
"%2 c #342F30",
"%3 c #34302D",
"%4 c #343032",
"%5 c #69757E",
"%6 c #34312E",
"%7 c #34312F",
"%8 c #343230",
"%9 c #343232",
"%0 c #343233",
"%q c #343239",
"%w c #34323A",
"%e c #463F32",
"%r c #69778B",
"%t c #343332",
"%y c #343333",
"%u c #343336",
"%i c #464038",
"%p c #46403D",
"%a c #343434",
"%s c #34353B",
"%d c #584F3C",
"%f c #584F42",
"%g c #34363D",
"%h c #34363E",
"%j c #464346",
"%k c #343737",
"%l c #464540",
"%z c #34393D",
"%x c #6A6044",
"%c c #7C6D48",
"%v c #9FA6A0",
"%b c #8D9A96",
"%n c #464B52",
"%m c #D5D419",
"%M c #D5D41F",
"%N c #C3C760",
"%B c #585C56",
"%V c #6A6B6B",
"%C c #D5D962",
"%Z c #6A6D64",
"%A c #594135",
"%S c #8F684E",
"%D c #6A6F6E",
"%F c #352D2E",
"%G c #473A31",
"%H c #473A32",
"%J c #352E2E",
"%K c #352F2E",
"%L c #35302E",
"%P c #353030",
"%I c #353032",
"%U c #35312D",
"%Y c #353130",
"%T c #353132",
"%R c #35322F",
"%E c #353230",
"%W c #353231",
"%Q c #353232",
"%! c #353233",
"%~ c #353234",
"%^ c #353235",
"%/ c #6A7784",
"%( c #353333",
"%) c #35333A",
"%_ c #47403B",
"%` c #353433",
"%' c #353534",
"%] c #353536",
"%[ c #474343",
"%{ c #353739",
"%} c #6B5E40",
"%| c #35393C",
"&  c #474643",
"&. c #353A3A",
"&X c #353A3B",
"&o c #353A3D",
"&O c #595449",
"&+ c #353B3F",
"&@ c #7D6E49",
"&# c #7D6F49",
"&$ c #595A5E",
"&% c #47505C",
/* pixels */
"                                                                                                ",
"                                                    oEoI.                                       ",
"                                                  +R 3#y#t.F i                                  ",
"                                                  @}@$On$~ I$g$).c                              ",
"                                                OB@E@+ q.+XH `Ot#|O3O,                          ",
"                                               ,$X 5.g$Bo' Y+9 j )@OX &$                        ",
"                                        XEXE#3._oD+YOJ+~.|#gOw.H&OXz#'%=Xm.*                    ",
"                                  XEXEXEXEXEOZ%~.Mo5+D%f#@XM.f@HOe+g#}#r%-#]$^.S                ",
"                              XEXEXEXEXEXE%M+* .+k#P R+S+>omX Xn 3@F#0#q#r#|#|%KO* 6            ",
"                          XEXEXEXEXEXEXEo9.B.G 0o6## sX@Xv#lONXOX+o=$B@$@D#'#w$ #[ > a%/        ",
"                        XEXEXEXEXEXEXE N#R+5%5$t#$#H$7###F@ro$#bobon+Uo%$&+g@Z#]#w%J%JO% i.]    ",
"                      XEXEXEXEXEXEXEXE# #f#J#oo1#K$7$'$/%c#LX$X.@{@tXCOI+4XO@P@o$a$s%;%J >%[    ",
"                    XEXEXEXEXEXEXEXE%m+* 8 ^XX@4XV#H$`&@&# h l+W#OXN#.@woGOF [ 9@L#_%J%:.'O[    ",
"                  XEXEXEXEXEXEXEXEo9.V#N$;%y w !o&%e%} h.O.o.JX=.KoH yOV%_+H$E |$2.g$o%P+]      ",
"                  XEXEXEXEXEXEXE n#EO.#a#9%`#M ^ ~Xc@5+K+E.JX;XGo4o4X:%x#X#C%pOC$6O-%^$_.%      ",
"                XEXEXEXEXEXEXEXE ]@`ok%Z@n%W ^%,%t.lXoO#$=OD.Lo3oPoPO2OYX<oJo<$R#Bo-%2$u        ",
"                XEXEXEXEXEXEXE%.+*#(%#od..o)XJX_ ^$> eXOo%@q.kX&OPOUOT+)@x@v$8@0.i 4@b          ",
"              XEXEXEXEXEXEXEo8.C.0#T+y+i%7XdXY&X%ROm+c%0.vonO$$L%d.#@z@c#=#*X*#k TO&$W          ",
"              XEXEXEXEXEXE M.>+n+lOW.eOi#i%*+@@~Xq#U+,.v%a%0O=oC@u%i@d+q#-@ko:.p%ToT            ",
"              XEXEXEXEXEXE+LO.o{ GO +b+3 o#`$k%6X{.P@l$l :@* r.bo>OC$<oV+8#S.u%~X8              ",
"            XEXEXEXEXEXE$e+@Xt$9%+$y.-OaO4${O}@S A#d$m.;%Z 7oZ.b /O-O;+J (+D W$4.UXE            ",
"            XEXEXEXEXE.=X%+m@R& O^$1+-.tOs@Y#DXy+O%3 1+l.@%'#i#e$C.z.xOSO;oB QOKXEXE            ",
"            XEXEXEXE b#>o@o`O! =o{%B+:#A+vX~%%X(@p%lOl%O.j$Z$}@UXAOA#v.noSo, X VXEXE            ",
"            XEXEXEXEo*#nXioK$Y+%$O @Xu dX^+P+aX)$k+r@y } < ##f%z%6O<.ro;%(O:+tXEXEXE            ",
"            XEXEXE$wOx@,oeodO@@$otXTX7Ok c.a.I K%O@X@]+NX>o[ %oN%QX5%b.N$@OG.RXEXEXE            ",
"            XEXEXL {Xp+`O)%G%1OtX9$p#4#2$+X{%kO>@j#!.8%3X#%v.DXx@..[%]$lX2$iXEXEXEXE            ",
"            XE m#,@`oX+1$0+ #p+|Oz.7.&O|o.o7XgXeoj.D%U@A@C#V$%$[+^@V 2oA%oXEXEXEXEXE            ",
"            XEoM+;@,$@Oy@<+j.^oQ%@+o+%.4$q z+f@~@:@;.^% .Y%Y.d$( tOL@=+TXEXEXEXEXEXE            ",
"            XbooOE pXK$.$zoa#G PX]Oa ZOa%&$j k$$.Tow.9X-O1 U.w L%|@;#1O7XEXEXEXEXE              ",
"          #l+z@(oR.m+[@%$f#<OsX(&.o) COQ#/@6+hXW@@#QXw@/$M D@m+u ;+!%NXEXEXEXEXEXE              ",
"        %j.h@e@Lo!.3Oco_XQO(X4O_@J.<O~$5oW%<$%X/ '$P@T%8 EXsXB+(@&.{.6XEXEXEXEXEXE              ",
"        .`OM$]+2#~@G#aos$n@BX[%H%>+ X3Oq$3$OO9#soXo2@#+&X|+d$-+.%n#^XEXEXEXEXEXE                ",
"      @a$S+ZoUXkX1+l++O/Os.W%{o(Oro/ O%9Opoq%$ vO'.}X{+Q+}@E@^@7$|XEXEXEXEXEXEXE                ",
"      %u+X+M#YOVOgX0./%A+p.~@J.1#%oY%S$l#dXrXZ+%+B$J$K+/ H$Q+m+F#5XEXEXEXEXEXE                  ",
"      +<@'o +x#u@W.(#:.:$U +%L+++A+Iol$.O5@ oi f@$Of -X!#x%Y+'%CXEXEXEXEXEXEXE                  ",
"        @g$,o]oh@Q@(+mo`@io`#7+{X'OxOs.5.)o0o~%0X}XS#{ S@`@I@fXEXEXEXEXEXEXE                    ",
"          .!#+o}Xa+M#j@-@&.EO0#r#W%E@Kou.A g *$A$-%!$!.Z@>oyO6XEXEXEXEXEXE                      ",
"              XF$To oO$c$Nof#&#z&o$xO]$hX`@|Odoxo^+s@8@>+6 xXEXEXEXEXEXE                        ",
"                $b%s+Xog#h$B+MXfoi.Q#)XP &$V.q#IOO%F+Z+#.s.2XEXEXEXEXE                          ",
"                    @h@1opOh%I%4ozXU%X@^$*#cXj J%V&+o|+0@MXEXEXEXE                              ",
"                      &%%go}oh$#$v+$.$@'OvXhXI$doc$:+VoLXEXEXE                                  ",
"                        OH%h+$Ou@!$D@9@2 $or+G BO{Xl#8#;                                        ",
"                            OR@[OXOo#m$FOb%D@N#Zo#+w@s                                          ",
"                              O8$IOjOo@_%q@) FovOo uX,                                          ",
"                                  oF@3+=+C%)$G.yXRXD                                            ",
"                .,                  +_ _+CO+o+.X+7                                              ",
"                                      $r+e$H%wX6O`                                              ",
"                                          #6%r                                                  "
};
